<svg version="1" xmlns="http://www.w3.org/2000/svg" width="5461.333" height="5461.333" viewBox="0 0 4096.000000 4096.000000"><path d="M2811.7 522.7c-.2.5-.3 457.5-.2 1015.8 0 558.2-.1 1015.6-.3 1016.2-.3 1-26.7 1.3-127.3 1.3H2557l.2 254.3.3 254.2H3320v-4.5c.1-5.9.1-2513.2 0-2527.3V522h-253.9c-139.7 0-254.2.3-254.4.7zM1794.1 1792.8c0 559-.3 1016.7-.5 1017-.3.3-57.5.5-127.1.5H1540l-.1 3.1c0 3.3 0 502.3.1 504.2 0 .9 94.9 1.2 381.5 1.2H2303V2302.2c0-559.1.2-1016.7.4-1017 .3-.2 57.3-.5 126.8-.6l126.3-.1.3-254.1.2-254.1h-762.9v1016.5zM3574.9 776.9c-.1.3-.2 114.7-.3 254.2l-.1 253.6 254.2.1H4083V776.3h-254c-139.7 0-254.1.3-254.1.6zM777 2301.7V3573h508.6l-.1-1016.7V1539.5l127.2-.3 127.2-.2-.2-254.3-.2-254.2H777v1271.2zM14 3064.6v254.2h508l.4-2.2c.3-1.1.4-115.5.3-254.1l-.2-252-254.2-.1-254.3-.1v254.3z"/></svg>